<?xml version="1.0" encoding="UTF-8" standalone="no"?>
<!-- Created with Inkscape (http://www.inkscape.org/) -->

<svg
   width="512"
   height="512"
   viewBox="0 0 512 512"
   version="1.1"
   id="svg1"
   inkscape:version="1.4.2 (ebf0e940d0, 2025-05-08)"
   sodipodi:docname="logo.svg"
   inkscape:export-filename="logo.png"
   inkscape:export-xdpi="96"
   inkscape:export-ydpi="96"
   xmlns:inkscape="http://www.inkscape.org/namespaces/inkscape"
   xmlns:sodipodi="http://sodipodi.sourceforge.net/DTD/sodipodi-0.dtd"
   xmlns="http://www.w3.org/2000/svg"
   xmlns:svg="http://www.w3.org/2000/svg">
  <sodipodi:namedview
     id="namedview1"
     pagecolor="#ffffff"
     bordercolor="#000000"
     borderopacity="0.25"
     inkscape:showpageshadow="2"
     inkscape:pageopacity="0.0"
     inkscape:pagecheckerboard="0"
     inkscape:deskcolor="#d1d1d1"
     inkscape:document-units="px"
     inkscape:zoom="1.4142136"
     inkscape:cx="230.51681"
     inkscape:cy="255.97265"
     inkscape:window-width="1920"
     inkscape:window-height="1011"
     inkscape:window-x="0"
     inkscape:window-y="0"
     inkscape:window-maximized="1"
     inkscape:current-layer="layer1" />
  <defs
     id="defs1" />
  <g
     inkscape:label="Calque 1"
     inkscape:groupmode="layer"
     id="layer1">
    <circle
       style="fill:#ffffff;fill-opacity:1"
       id="path4"
       cx="276"
       cy="214.5"
       r="72.5" />
    <path
       style="fill:#f95331;fill-opacity:0.996078;stroke-width:0.707721"
       d="M 157.51459,338.62578 C 63.74601,243.35503 118.25721,112.23086 188.79532,66.037085 199.9241,41.094207 214.27891,17.107183 251.85324,0 c 3.73819,0.543174 7.69078,0.90976195 5.95824,5.9582369 -10.8901,32.0458511 -9.01022,40.1819671 -9.43385,52.6310621 12.37043,-14.238587 24.2526,-28.797097 43.19715,-38.7285 5.64386,-0.825045 6.86603,1.070963 6.45477,3.972151 -3.86156,12.260071 -7.5173,25.713766 -8.93735,52.134523 15.87016,28.667817 38.58147,44.154247 68.02312,46.672447 4.5649,0.7889 7.67014,2.4428 5.95824,6.95127 -11.4825,23.68886 -32.80669,27.48501 -55.11364,29.29463 -107.02774,26.71456 -141.73327,92.95931 -142.50102,177.75389 -2.34573,2.80883 -5.01355,3.33086 -7.94431,1.98607 z"
       id="path1"
       sodipodi:nodetypes="ccccccccccccc" />
    <path
       style="fill:#f95231;fill-opacity:1;stroke-width:0.707721"
       d="m 199.60342,320.19692 c -5.08744,1.1225 -8.3249,-0.52999 -9.20066,-5.72501 2.4338,-54.47345 37.5405,-91.35593 73.92257,-112.70093 22.0317,-12.92578 40.85407,-15.38114 64.48841,-17.56267 39.80405,6.23511 69.72411,31.88621 75.22943,79.39606 1.25919,10.86656 -1.08794,18.55119 -2.24112,32.32076 -10.93096,47.00782 -42.77068,69.27148 -69.51269,96.82126 -50.47634,37.40445 -67.06598,74.80891 -58.58928,112.21336 0.28164,4.41927 -2.14405,7.62081 -6.95126,6.95127 -64.07326,-31.299 -82.36856,-77.74241 -71.00224,-133.56369 7.62526,-24.15396 25.5384,-49.89849 58.27893,-80.00165 1.93972,-2.94554 3.62745,-5.83709 -1.24129,-7.32366 -16.32035,-2.03227 -34.08169,12.21896 -53.1808,29.1749 z"
       id="path2"
       sodipodi:nodetypes="ccscscccccccc" />
    <path
       id="path3"
       style="fill:#4f0d00;fill-opacity:1;stroke-width:0.707721"
       d="m 282.18825,163.04946 c -47.96194,0.3488 -56.11572,40.38771 -55.3612,55.61003 2.20485,17.59576 9.0692,32.12649 23.83305,41.45974 l -8.19267,15.51596 c -1.66971,-0.11289 -3.32239,-0.28172 -5.15175,0.12437 l -35.99424,71.04993 c -1.29635,2.07251 -0.91491,3.26463 0.264,4.03761 l 18.29018,9.44504 c 2.28387,0.64635 3.9973,-0.024 4.96511,-2.42173 l 33.97197,-69.78105 c -0.23512,-1.60881 -1.6789,-2.81455 -2.54476,-4.21311 l 7.37303,-17.64192 c 5.50305,0.71152 10.56204,1.87826 15.13997,1.87021 30.50157,-0.0535 44.88692,-21.68074 51.03887,-40.8916 1.85241,-5.78452 1.28631,-6.11886 1.27581,-12.02851 -1.37067,-26.92819 -16.91971,-40.45303 -31.5295,-47.29429 -6.60034,-3.09068 -11.60301,-3.91756 -17.37787,-4.84071 z m -3.48747,16.77935 c 20.17557,6.1e-4 36.5307,16.35639 36.53057,36.53197 1.3e-4,20.17554 -16.35503,36.53133 -36.53057,36.53193 -20.17608,1.4e-4 -36.53208,-16.35586 -36.53195,-36.53193 -1.4e-4,-20.17612 16.35584,-36.53211 36.53195,-36.53197 z"
       sodipodi:nodetypes="sccccccccccccscsssccccc" />
    <path
       style="fill:#f95231;fill-opacity:1;stroke-width:0.707721"
       d="m 332.28882,392.74573 c -50.47634,37.40446 -67.06598,74.8089 -58.58927,112.21334 0.28163,4.41929 -2.14405,7.62082 -6.95127,6.95128 -64.07325,-31.299 -82.36856,-77.74241 -71.00223,-133.56369 7.62525,-24.15396 25.53838,-49.89849 58.27893,-80.00165 81.40642,-32.21357 114.36634,64.6315 78.26384,94.40072 z"
       id="path2-2"
       sodipodi:nodetypes="cccccc" />
  </g>
</svg>
